<svg width="1280" height="800" viewBox="0 0 1280 800" fill="none" xmlns="http://www.w3.org/2000/svg">
  <defs>
    <linearGradient id="bg" x1="90" y1="48" x2="1116" y2="704" gradientUnits="userSpaceOnUse">
      <stop stop-color="#F8EEE0"/>
      <stop offset="1" stop-color="#E6D1B2"/>
    </linearGradient>
    <linearGradient id="panel" x1="877" y1="157" x2="1060" y2="551" gradientUnits="userSpaceOnUse">
      <stop stop-color="#FFFDF8"/>
      <stop offset="1" stop-color="#F8EAD7"/>
    </linearGradient>
  </defs>
  <rect width="1280" height="800" fill="url(#bg)"/>
  <circle cx="163" cy="120" r="126" fill="#FFFFFF" fill-opacity="0.35"/>
  <circle cx="1150" cy="676" r="170" fill="#C76D1C" fill-opacity="0.14"/>
  <text x="90" y="100" fill="#8A4E14" font-size="24" font-family="Avenir Next, Helvetica, Arial, sans-serif" font-weight="700" letter-spacing="4">PAGE TO MARKDOWN</text>
  <text x="90" y="166" fill="#1B262C" font-size="58" font-family="Georgia, serif" font-weight="700">Turn the current tab into</text>
  <text x="90" y="230" fill="#1B262C" font-size="58" font-family="Georgia, serif" font-weight="700">Markdown or plain text.</text>
  <text x="92" y="286" fill="#4A5B63" font-size="24" font-family="Avenir Next, Helvetica, Arial, sans-serif">One click to copy or download a clean readable version of the page.</text>
  <rect x="88" y="344" width="740" height="394" rx="28" fill="#FDF9F3" stroke="#1F2B31" stroke-opacity="0.1"/>
  <rect x="88" y="344" width="740" height="42" rx="28" fill="#E9D7BF"/>
  <circle cx="124" cy="365" r="7" fill="#D57918"/>
  <circle cx="148" cy="365" r="7" fill="#E1B36E"/>
  <circle cx="172" cy="365" r="7" fill="#F1E1CC"/>
  <rect x="210" y="355" width="560" height="20" rx="10" fill="#FFFDF8" fill-opacity="0.88"/>
  <text x="226" y="369" fill="#6B747A" font-size="12" font-family="IBM Plex Mono, Menlo, monospace">https://example.com/article</text>
  <text x="126" y="438" fill="#1B262C" font-size="42" font-family="Georgia, serif" font-weight="700">A long article title that now</text>
  <text x="126" y="488" fill="#1B262C" font-size="42" font-family="Georgia, serif" font-weight="700">becomes a clean Markdown note</text>
  <rect x="126" y="528" width="518" height="16" rx="8" fill="#D8C6AF"/>
  <rect x="126" y="557" width="574" height="14" rx="7" fill="#E3D3BF"/>
  <rect x="126" y="584" width="558" height="14" rx="7" fill="#E3D3BF"/>
  <rect x="126" y="611" width="482" height="14" rx="7" fill="#E3D3BF"/>
  <rect x="126" y="648" width="214" height="42" rx="21" fill="#EEDFCB"/>
  <text x="154" y="674" fill="#6D4A20" font-size="18" font-family="Avenir Next, Helvetica, Arial, sans-serif" font-weight="700">Readable article view</text>
  <g filter="url(#shadow)">
    <rect x="842" y="154" width="330" height="438" rx="30" fill="url(#panel)"/>
    <rect x="842.5" y="154.5" width="329" height="437" rx="29.5" stroke="#1F2B31" stroke-opacity="0.1"/>
    <text x="872" y="204" fill="#8A4E14" font-size="14" font-family="Avenir Next, Helvetica, Arial, sans-serif" font-weight="700" letter-spacing="2">PAGE TO MARKDOWN</text>
    <text x="872" y="252" fill="#1B262C" font-size="34" font-family="Georgia, serif" font-weight="700">Turn this tab into</text>
    <text x="872" y="290" fill="#1B262C" font-size="34" font-family="Georgia, serif" font-weight="700">something usable.</text>
    <rect x="872" y="323" width="270" height="74" rx="18" fill="#FFFFFF" fill-opacity="0.75" stroke="#1F2B31" stroke-opacity="0.08"/>
    <text x="892" y="352" fill="#223138" font-size="17" font-family="Avenir Next, Helvetica, Arial, sans-serif" font-weight="700">Current article title</text>
    <text x="892" y="378" fill="#627178" font-size="12" font-family="IBM Plex Mono, Menlo, monospace">https://example.com/article</text>
    <rect x="872" y="420" width="270" height="54" rx="18" fill="#D57918"/>
    <text x="944" y="454" fill="#FFF9F2" font-size="18" font-family="Avenir Next, Helvetica, Arial, sans-serif" font-weight="700">Copy Markdown</text>
    <rect x="872" y="486" width="270" height="42" rx="16" fill="#FFFFFF"/>
    <text x="953" y="512" fill="#223138" font-size="16" font-family="Avenir Next, Helvetica, Arial, sans-serif" font-weight="700">Copy Plain Text</text>
    <rect x="872" y="538" width="270" height="42" rx="16" fill="#FFFFFF"/>
    <text x="970" y="564" fill="#223138" font-size="16" font-family="Avenir Next, Helvetica, Arial, sans-serif" font-weight="700">Download .md</text>
  </g>
  <defs>
    <filter id="shadow" x="810" y="130" width="394" height="502" filterUnits="userSpaceOnUse" color-interpolation-filters="sRGB">
      <feFlood flood-opacity="0" result="BackgroundImageFix"/>
      <feColorMatrix in="SourceAlpha" type="matrix" values="0 0 0 0 0 0 0 0 0 0 0 0 0 0 0 0 0 0 127 0" result="hardAlpha"/>
      <feOffset dy="10"/>
      <feGaussianBlur stdDeviation="16"/>
      <feComposite in2="hardAlpha" operator="out"/>
      <feColorMatrix type="matrix" values="0 0 0 0 0.403922 0 0 0 0 0.270588 0 0 0 0 0.0784314 0 0 0 0.18 0"/>
      <feBlend mode="normal" in2="BackgroundImageFix" result="effect1_dropShadow_1_1"/>
      <feBlend mode="normal" in="SourceGraphic" in2="effect1_dropShadow_1_1" result="shape"/>
    </filter>
  </defs>
</svg>
